<mxfile host="app.diagrams.net" modified="2023-11-27T17:28:39.418Z" agent="Mozilla/5.0 (Windows NT 10.0; Win64; x64) AppleWebKit/537.36 (KHTML, like Gecko) Chrome/119.0.0.0 Safari/537.36 Edg/119.0.0.0" etag="cEOvs1Glhts3R1rwkg9m" version="22.1.4" type="device">
  <diagram name="Seite-1" id="0NsEZmdlxZwcnF9jEizN">
    <mxGraphModel dx="1002" dy="1800" grid="1" gridSize="10" guides="1" tooltips="1" connect="1" arrows="1" fold="1" page="1" pageScale="1" pageWidth="827" pageHeight="1169" math="0" shadow="0">
      <root>
        <mxCell id="0" />
        <mxCell id="1" parent="0" />
        <mxCell id="VuZYO-ba5Akp1SjeqLfg-2" value="" style="ellipse;whiteSpace=wrap;html=1;aspect=fixed;strokeWidth=3;fillColor=#e1d5e7;strokeColor=#9673a6;" parent="1" vertex="1">
          <mxGeometry x="170" y="110" width="510" height="510" as="geometry" />
        </mxCell>
        <mxCell id="VuZYO-ba5Akp1SjeqLfg-9" value="&lt;font style=&quot;font-size: 22px;&quot;&gt;ISEAG&lt;/font&gt;" style="text;html=1;strokeColor=none;fillColor=none;align=center;verticalAlign=middle;whiteSpace=wrap;rounded=0;" parent="1" vertex="1">
          <mxGeometry x="414" y="110" width="95" height="40" as="geometry" />
        </mxCell>
        <mxCell id="VuZYO-ba5Akp1SjeqLfg-14" value="" style="ellipse;whiteSpace=wrap;html=1;" parent="1" vertex="1">
          <mxGeometry x="210" y="170" width="450" height="420" as="geometry" />
        </mxCell>
        <mxCell id="VuZYO-ba5Akp1SjeqLfg-11" value="" style="ellipse;whiteSpace=wrap;html=1;" parent="1" vertex="1">
          <mxGeometry x="378.63" y="207.75" width="220" height="222.5" as="geometry" />
        </mxCell>
        <mxCell id="VuZYO-ba5Akp1SjeqLfg-10" value="&lt;font style=&quot;font-size: 19px;&quot;&gt;Garantiefall Prozess&lt;/font&gt;" style="text;html=1;strokeColor=none;fillColor=none;align=center;verticalAlign=middle;whiteSpace=wrap;rounded=0;" parent="1" vertex="1">
          <mxGeometry x="465.75" y="220" width="88.5" height="70" as="geometry" />
        </mxCell>
        <mxCell id="VuZYO-ba5Akp1SjeqLfg-12" value="&lt;font style=&quot;font-size: 16px;&quot;&gt;BPMN&lt;/font&gt;" style="ellipse;whiteSpace=wrap;html=1;" parent="1" vertex="1">
          <mxGeometry x="454.25" y="291.25" width="100" height="55" as="geometry" />
        </mxCell>
        <mxCell id="VuZYO-ba5Akp1SjeqLfg-16" value="&lt;font style=&quot;font-size: 19px;&quot;&gt;ISE Support&lt;/font&gt;" style="text;html=1;strokeColor=none;fillColor=none;align=center;verticalAlign=middle;whiteSpace=wrap;rounded=0;" parent="1" vertex="1">
          <mxGeometry x="399" y="160" width="110" height="60" as="geometry" />
        </mxCell>
        <mxCell id="VuZYO-ba5Akp1SjeqLfg-38" style="rounded=0;orthogonalLoop=1;jettySize=auto;html=1;entryX=1;entryY=1;entryDx=0;entryDy=0;fillColor=#f8cecc;strokeColor=#b85450;" parent="1" source="VuZYO-ba5Akp1SjeqLfg-18" target="VuZYO-ba5Akp1SjeqLfg-2" edge="1">
          <mxGeometry relative="1" as="geometry" />
        </mxCell>
        <mxCell id="VuZYO-ba5Akp1SjeqLfg-18" value="&lt;font style=&quot;font-size: 16px;&quot;&gt;ISO 9001&lt;/font&gt;" style="ellipse;whiteSpace=wrap;html=1;" parent="1" vertex="1">
          <mxGeometry x="700" y="490" width="111" height="85" as="geometry" />
        </mxCell>
        <mxCell id="VuZYO-ba5Akp1SjeqLfg-32" style="rounded=0;orthogonalLoop=1;jettySize=auto;html=1;entryX=0;entryY=0.5;entryDx=0;entryDy=0;startArrow=classic;startFill=1;fillColor=#d5e8d4;strokeColor=#82b366;shape=flexArrow;" parent="1" source="VuZYO-ba5Akp1SjeqLfg-24" target="VuZYO-ba5Akp1SjeqLfg-12" edge="1">
          <mxGeometry relative="1" as="geometry" />
        </mxCell>
        <mxCell id="nUDOQ9DPYOoLFEVzFZWF-7" style="rounded=0;orthogonalLoop=1;jettySize=auto;html=1;entryX=0;entryY=1;entryDx=0;entryDy=0;fillColor=#d5e8d4;strokeColor=#82b366;shape=flexArrow;" parent="1" source="VuZYO-ba5Akp1SjeqLfg-24" target="nUDOQ9DPYOoLFEVzFZWF-3" edge="1">
          <mxGeometry relative="1" as="geometry" />
        </mxCell>
        <mxCell id="nUDOQ9DPYOoLFEVzFZWF-9" style="rounded=0;orthogonalLoop=1;jettySize=auto;html=1;entryX=1;entryY=0;entryDx=0;entryDy=0;fillColor=#d5e8d4;strokeColor=#82b366;" parent="1" source="VuZYO-ba5Akp1SjeqLfg-24" target="VuZYO-ba5Akp1SjeqLfg-42" edge="1">
          <mxGeometry relative="1" as="geometry" />
        </mxCell>
        <mxCell id="nUDOQ9DPYOoLFEVzFZWF-11" style="rounded=0;orthogonalLoop=1;jettySize=auto;html=1;entryX=1;entryY=1;entryDx=0;entryDy=0;fillColor=#d5e8d4;strokeColor=#82b366;" parent="1" source="VuZYO-ba5Akp1SjeqLfg-24" target="VuZYO-ba5Akp1SjeqLfg-44" edge="1">
          <mxGeometry relative="1" as="geometry" />
        </mxCell>
        <mxCell id="VuZYO-ba5Akp1SjeqLfg-24" value="&lt;font style=&quot;font-size: 16px;&quot;&gt;Supporter&lt;/font&gt;" style="ellipse;whiteSpace=wrap;html=1;" parent="1" vertex="1">
          <mxGeometry x="250" y="346.25" width="120" height="80" as="geometry" />
        </mxCell>
        <mxCell id="VuZYO-ba5Akp1SjeqLfg-31" style="rounded=0;orthogonalLoop=1;jettySize=auto;html=1;entryX=1;entryY=0;entryDx=0;entryDy=0;fillColor=#f8cecc;strokeColor=#b85450;" parent="1" source="VuZYO-ba5Akp1SjeqLfg-30" target="VuZYO-ba5Akp1SjeqLfg-2" edge="1">
          <mxGeometry relative="1" as="geometry" />
        </mxCell>
        <mxCell id="VuZYO-ba5Akp1SjeqLfg-50" style="rounded=0;orthogonalLoop=1;jettySize=auto;html=1;entryX=0.5;entryY=0;entryDx=0;entryDy=0;fillColor=#f8cecc;strokeColor=#b85450;exitX=0.5;exitY=0;exitDx=0;exitDy=0;edgeStyle=orthogonalEdgeStyle;" parent="1" source="VuZYO-ba5Akp1SjeqLfg-30" target="VuZYO-ba5Akp1SjeqLfg-36" edge="1">
          <mxGeometry relative="1" as="geometry">
            <Array as="points">
              <mxPoint x="710" y="-10" />
              <mxPoint x="160" y="-10" />
            </Array>
          </mxGeometry>
        </mxCell>
        <mxCell id="VuZYO-ba5Akp1SjeqLfg-30" value="&lt;font style=&quot;font-size: 15px;&quot;&gt;Acer GerÃ¤te&lt;/font&gt;" style="ellipse;whiteSpace=wrap;html=1;" parent="1" vertex="1">
          <mxGeometry x="650" y="30" width="120" height="80" as="geometry" />
        </mxCell>
        <mxCell id="nUDOQ9DPYOoLFEVzFZWF-14" style="rounded=0;orthogonalLoop=1;jettySize=auto;html=1;fillColor=#d5e8d4;strokeColor=#82b366;startArrow=classic;startFill=1;" parent="1" source="VuZYO-ba5Akp1SjeqLfg-36" target="VuZYO-ba5Akp1SjeqLfg-24" edge="1">
          <mxGeometry relative="1" as="geometry" />
        </mxCell>
        <mxCell id="nUDOQ9DPYOoLFEVzFZWF-17" style="rounded=0;orthogonalLoop=1;jettySize=auto;html=1;entryX=0;entryY=0.5;entryDx=0;entryDy=0;fillColor=#f8cecc;strokeColor=#b85450;" parent="1" source="VuZYO-ba5Akp1SjeqLfg-36" target="VuZYO-ba5Akp1SjeqLfg-48" edge="1">
          <mxGeometry relative="1" as="geometry" />
        </mxCell>
        <mxCell id="VuZYO-ba5Akp1SjeqLfg-36" value="&lt;font style=&quot;font-size: 15px;&quot;&gt;Kunde&lt;/font&gt;" style="ellipse;whiteSpace=wrap;html=1;" parent="1" vertex="1">
          <mxGeometry x="100" y="50" width="120" height="80" as="geometry" />
        </mxCell>
        <mxCell id="nUDOQ9DPYOoLFEVzFZWF-8" style="rounded=0;orthogonalLoop=1;jettySize=auto;html=1;entryX=0;entryY=1;entryDx=0;entryDy=0;fillColor=#f8cecc;strokeColor=#b85450;" parent="1" source="VuZYO-ba5Akp1SjeqLfg-42" target="VuZYO-ba5Akp1SjeqLfg-2" edge="1">
          <mxGeometry relative="1" as="geometry" />
        </mxCell>
        <mxCell id="VuZYO-ba5Akp1SjeqLfg-42" value="&lt;font style=&quot;font-size: 15px;&quot;&gt;Acer&amp;nbsp;&lt;/font&gt;" style="ellipse;whiteSpace=wrap;html=1;" parent="1" vertex="1">
          <mxGeometry x="50" y="540" width="130" height="90" as="geometry" />
        </mxCell>
        <mxCell id="VuZYO-ba5Akp1SjeqLfg-45" style="rounded=0;orthogonalLoop=1;jettySize=auto;html=1;entryX=0;entryY=1;entryDx=0;entryDy=0;fillColor=#f8cecc;strokeColor=#b85450;startArrow=classic;startFill=1;" parent="1" source="VuZYO-ba5Akp1SjeqLfg-44" target="VuZYO-ba5Akp1SjeqLfg-36" edge="1">
          <mxGeometry relative="1" as="geometry" />
        </mxCell>
        <mxCell id="VuZYO-ba5Akp1SjeqLfg-46" style="rounded=0;orthogonalLoop=1;jettySize=auto;html=1;entryX=0.5;entryY=0;entryDx=0;entryDy=0;startArrow=classic;startFill=1;fillColor=#f8cecc;strokeColor=#b85450;" parent="1" source="VuZYO-ba5Akp1SjeqLfg-44" target="VuZYO-ba5Akp1SjeqLfg-42" edge="1">
          <mxGeometry relative="1" as="geometry" />
        </mxCell>
        <mxCell id="VuZYO-ba5Akp1SjeqLfg-44" value="&lt;font style=&quot;font-size: 15px;&quot;&gt;Post&lt;/font&gt;" style="ellipse;whiteSpace=wrap;html=1;" parent="1" vertex="1">
          <mxGeometry x="20" y="279" width="120" height="80" as="geometry" />
        </mxCell>
        <mxCell id="VuZYO-ba5Akp1SjeqLfg-49" style="rounded=0;orthogonalLoop=1;jettySize=auto;html=1;fillColor=#f8cecc;strokeColor=#b85450;entryX=0.37;entryY=0.013;entryDx=0;entryDy=0;entryPerimeter=0;" parent="1" source="VuZYO-ba5Akp1SjeqLfg-48" target="VuZYO-ba5Akp1SjeqLfg-2" edge="1">
          <mxGeometry relative="1" as="geometry">
            <mxPoint x="320" y="630" as="targetPoint" />
          </mxGeometry>
        </mxCell>
        <mxCell id="VuZYO-ba5Akp1SjeqLfg-48" value="&lt;font style=&quot;font-size: 15px;&quot;&gt;Reparaturanfrage&lt;/font&gt;" style="ellipse;whiteSpace=wrap;html=1;" parent="1" vertex="1">
          <mxGeometry x="258.63" y="10" width="120" height="80" as="geometry" />
        </mxCell>
        <mxCell id="nUDOQ9DPYOoLFEVzFZWF-10" style="rounded=0;orthogonalLoop=1;jettySize=auto;html=1;fillColor=#f8cecc;strokeColor=#b85450;" parent="1" source="VuZYO-ba5Akp1SjeqLfg-44" target="VuZYO-ba5Akp1SjeqLfg-2" edge="1">
          <mxGeometry relative="1" as="geometry" />
        </mxCell>
        <mxCell id="nUDOQ9DPYOoLFEVzFZWF-3" value="&lt;font style=&quot;font-size: 15px;&quot;&gt;Azure&lt;/font&gt;" style="ellipse;whiteSpace=wrap;html=1;verticalAlign=top;" parent="1" vertex="1">
          <mxGeometry x="700" y="276.25" width="120" height="123.75" as="geometry" />
        </mxCell>
        <mxCell id="nUDOQ9DPYOoLFEVzFZWF-16" style="rounded=0;orthogonalLoop=1;jettySize=auto;html=1;entryX=1;entryY=0.5;entryDx=0;entryDy=0;fillColor=#f8cecc;strokeColor=#b85450;shape=flexArrow;" parent="1" source="nUDOQ9DPYOoLFEVzFZWF-1" target="VuZYO-ba5Akp1SjeqLfg-12" edge="1">
          <mxGeometry relative="1" as="geometry" />
        </mxCell>
        <mxCell id="nUDOQ9DPYOoLFEVzFZWF-1" value="&lt;font style=&quot;font-size: 15px;&quot;&gt;Camunda&lt;/font&gt;" style="ellipse;whiteSpace=wrap;html=1;" parent="1" vertex="1">
          <mxGeometry x="721" y="310" width="90" height="59" as="geometry" />
        </mxCell>
        <mxCell id="YJgLNUw59tCUcruH0o3P-4" value="&lt;font style=&quot;font-size: 16px;&quot;&gt;1&lt;/font&gt;" style="text;html=1;align=center;verticalAlign=middle;resizable=0;points=[];autosize=1;strokeColor=none;fillColor=none;" vertex="1" parent="1">
          <mxGeometry x="369" y="75" width="30" height="30" as="geometry" />
        </mxCell>
        <mxCell id="YJgLNUw59tCUcruH0o3P-5" value="&lt;font style=&quot;font-size: 16px;&quot;&gt;2&lt;/font&gt;" style="text;html=1;align=center;verticalAlign=middle;resizable=0;points=[];autosize=1;strokeColor=none;fillColor=none;" vertex="1" parent="1">
          <mxGeometry x="660" y="500" width="30" height="30" as="geometry" />
        </mxCell>
        <mxCell id="YJgLNUw59tCUcruH0o3P-6" value="&lt;font style=&quot;font-size: 16px;&quot;&gt;3&lt;/font&gt;" style="text;html=1;align=center;verticalAlign=middle;resizable=0;points=[];autosize=1;strokeColor=none;fillColor=none;" vertex="1" parent="1">
          <mxGeometry x="670" y="130" width="30" height="30" as="geometry" />
        </mxCell>
        <mxCell id="YJgLNUw59tCUcruH0o3P-7" value="&lt;font style=&quot;font-size: 16px;&quot;&gt;4&lt;/font&gt;" style="text;html=1;align=center;verticalAlign=middle;resizable=0;points=[];autosize=1;strokeColor=none;fillColor=none;" vertex="1" parent="1">
          <mxGeometry x="670" y="290" width="30" height="30" as="geometry" />
        </mxCell>
        <mxCell id="YJgLNUw59tCUcruH0o3P-8" value="&lt;font style=&quot;font-size: 16px;&quot;&gt;5&lt;/font&gt;" style="text;html=1;align=center;verticalAlign=middle;resizable=0;points=[];autosize=1;strokeColor=none;fillColor=none;" vertex="1" parent="1">
          <mxGeometry x="489.25" y="400" width="30" height="30" as="geometry" />
        </mxCell>
        <mxCell id="YJgLNUw59tCUcruH0o3P-9" value="&lt;font style=&quot;font-size: 16px;&quot;&gt;6&lt;/font&gt;" style="text;html=1;align=center;verticalAlign=middle;resizable=0;points=[];autosize=1;strokeColor=none;fillColor=none;" vertex="1" parent="1">
          <mxGeometry x="384" y="300" width="30" height="30" as="geometry" />
        </mxCell>
        <mxCell id="YJgLNUw59tCUcruH0o3P-10" value="&lt;font style=&quot;font-size: 16px;&quot;&gt;7&lt;/font&gt;" style="text;html=1;align=center;verticalAlign=middle;resizable=0;points=[];autosize=1;strokeColor=none;fillColor=none;" vertex="1" parent="1">
          <mxGeometry x="228.63" y="70" width="30" height="30" as="geometry" />
        </mxCell>
        <mxCell id="YJgLNUw59tCUcruH0o3P-11" value="&lt;font style=&quot;font-size: 16px;&quot;&gt;8&lt;/font&gt;" style="text;html=1;align=center;verticalAlign=middle;resizable=0;points=[];autosize=1;strokeColor=none;fillColor=none;" vertex="1" parent="1">
          <mxGeometry x="489.25" y="10" width="30" height="30" as="geometry" />
        </mxCell>
        <mxCell id="YJgLNUw59tCUcruH0o3P-12" value="&lt;font style=&quot;font-size: 16px;&quot;&gt;9&lt;/font&gt;" style="text;html=1;align=center;verticalAlign=middle;resizable=0;points=[];autosize=1;strokeColor=none;fillColor=none;" vertex="1" parent="1">
          <mxGeometry x="250" y="260" width="30" height="30" as="geometry" />
        </mxCell>
        <mxCell id="YJgLNUw59tCUcruH0o3P-13" value="&lt;font style=&quot;font-size: 16px;&quot;&gt;10&lt;br&gt;&lt;/font&gt;" style="text;html=1;align=center;verticalAlign=middle;resizable=0;points=[];autosize=1;strokeColor=none;fillColor=none;" vertex="1" parent="1">
          <mxGeometry x="210" y="339" width="40" height="30" as="geometry" />
        </mxCell>
        <mxCell id="YJgLNUw59tCUcruH0o3P-14" value="&lt;span style=&quot;font-size: 16px;&quot;&gt;11&lt;/span&gt;" style="text;html=1;align=center;verticalAlign=middle;resizable=0;points=[];autosize=1;strokeColor=none;fillColor=none;" vertex="1" parent="1">
          <mxGeometry x="250" y="450" width="40" height="30" as="geometry" />
        </mxCell>
        <mxCell id="YJgLNUw59tCUcruH0o3P-15" value="&lt;font style=&quot;font-size: 16px;&quot;&gt;12&lt;/font&gt;" style="text;html=1;align=center;verticalAlign=middle;resizable=0;points=[];autosize=1;strokeColor=none;fillColor=none;" vertex="1" parent="1">
          <mxGeometry x="195" y="560" width="40" height="30" as="geometry" />
        </mxCell>
        <mxCell id="YJgLNUw59tCUcruH0o3P-16" value="&lt;font style=&quot;font-size: 16px;&quot;&gt;13&lt;/font&gt;" style="text;html=1;align=center;verticalAlign=middle;resizable=0;points=[];autosize=1;strokeColor=none;fillColor=none;" vertex="1" parent="1">
          <mxGeometry x="40" y="430.25" width="40" height="30" as="geometry" />
        </mxCell>
        <mxCell id="YJgLNUw59tCUcruH0o3P-17" value="&lt;font style=&quot;font-size: 16px;&quot;&gt;14&lt;/font&gt;" style="text;html=1;align=center;verticalAlign=middle;resizable=0;points=[];autosize=1;strokeColor=none;fillColor=none;" vertex="1" parent="1">
          <mxGeometry x="135" y="291.25" width="40" height="30" as="geometry" />
        </mxCell>
        <mxCell id="YJgLNUw59tCUcruH0o3P-18" value="&lt;font style=&quot;font-size: 16px;&quot;&gt;15&lt;/font&gt;" style="text;html=1;align=center;verticalAlign=middle;resizable=0;points=[];autosize=1;strokeColor=none;fillColor=none;" vertex="1" parent="1">
          <mxGeometry x="50" y="170" width="40" height="30" as="geometry" />
        </mxCell>
      </root>
    </mxGraphModel>
  </diagram>
</mxfile>
